<svg width="24" height="24" viewBox="0 0 24 24" fill="none" xmlns="http://www.w3.org/2000/svg">
<g clip-path="url(#clip0_364_925)">
<path d="M7.52159 9C7.41843 9.00016 7.31763 9.0335 7.23189 9.09583C7.14615 9.15815 7.07931 9.24666 7.03981 9.3502C7.00031 9.45374 6.98991 9.56767 7.00992 9.67763C7.02994 9.78758 7.07947 9.88863 7.15227 9.96804L11.6314 14.8339C11.6798 14.8866 11.7372 14.9283 11.8005 14.9568C11.8637 14.9853 11.9315 15 12 15C12.0685 15 12.1363 14.9853 12.1995 14.9568C12.2628 14.9283 12.3202 14.8866 12.3686 14.8339L16.8477 9.96804C16.9205 9.88863 16.9701 9.78758 16.9901 9.67763C17.0101 9.56767 16.9997 9.45374 16.9602 9.3502C16.9207 9.24666 16.8539 9.15815 16.7681 9.09583C16.6824 9.0335 16.5816 9.00016 16.4784 9H7.52159Z" fill="#231F20"/>
</g>
<defs>
<clipPath id="clip0_364_925">
<rect width="24" height="24" fill="white"/>
</clipPath>
</defs>
</svg>
