<svg width="24" height="24" viewBox="0 0 24 24" fill="none" xmlns="http://www.w3.org/2000/svg">
<g clip-path="url(#clip0_364_929)">
<path d="M7 7.24925C7.00018 6.37843 7.25232 5.52442 7.72887 4.78054C8.20542 4.03667 8.88804 3.43156 9.70213 3.03136C10.5162 2.63115 11.4304 2.45125 12.3449 2.51131C13.2593 2.57138 14.1388 2.8691 14.8871 3.37193C15.6355 3.87477 16.224 4.56337 16.5882 5.36247C16.9525 6.16157 17.0785 7.04043 16.9526 7.90298C16.8266 8.76554 16.4535 9.5786 15.8739 10.2533C15.2944 10.928 14.5309 11.4384 13.6667 11.7286C13.179 11.8924 12.7569 12.1959 12.4584 12.5971C12.1599 12.9984 11.9997 13.4778 12 13.9691V15.562" stroke="#231F20" stroke-width="1.5" stroke-linecap="round" stroke-linejoin="round"/>
<path d="M12 20.3125C11.8764 20.3125 11.7555 20.3473 11.6528 20.4126C11.55 20.4778 11.4699 20.5705 11.4226 20.679C11.3753 20.7875 11.3629 20.9069 11.387 21.0221C11.4111 21.1373 11.4706 21.2431 11.5581 21.3261C11.6455 21.4092 11.7568 21.4657 11.8781 21.4886C11.9993 21.5115 12.125 21.4998 12.2392 21.4548C12.3534 21.4099 12.451 21.3338 12.5197 21.2362C12.5883 21.1385 12.625 21.0237 12.625 20.9063C12.625 20.7488 12.5592 20.5978 12.4419 20.4864C12.3247 20.3751 12.1658 20.3125 12 20.3125Z" fill="#231F20" stroke="#231F20" stroke-width="1.5" stroke-linecap="round" stroke-linejoin="round"/>
</g>
<defs>
<clipPath id="clip0_364_929">
<rect width="24" height="24" fill="white"/>
</clipPath>
</defs>
</svg>
