<svg width="24" height="24" viewBox="0 0 24 24" fill="none" xmlns="http://www.w3.org/2000/svg">
<g id="information-circle--information-frame-info-more-help-point-circle">
<path id="Vector" d="M11.9998 23.1429C18.1539 23.1429 23.1426 18.1541 23.1426 12C23.1426 5.84601 18.1539 0.857178 11.9998 0.857178C5.84576 0.857178 0.856934 5.84601 0.856934 12C0.856934 18.1541 5.84576 23.1429 11.9998 23.1429Z" stroke="#707887" stroke-linecap="round" stroke-linejoin="round"/>
<path id="Vector_2" d="M9.42822 17.1428H14.5711" stroke="#707887" stroke-linecap="round" stroke-linejoin="round"/>
<path id="Vector_3" d="M11.9999 17.1428V11.1428H10.2856" stroke="#707887" stroke-linecap="round" stroke-linejoin="round"/>
<g id="Group 2605">
<path id="Ellipse 1111" d="M11.9999 7.28585C11.7632 7.28585 11.5713 7.09397 11.5713 6.85728C11.5713 6.62059 11.7632 6.42871 11.9999 6.42871" stroke="#707887" stroke-linecap="round" stroke-linejoin="round"/>
<path id="Ellipse 1112" d="M12 7.28585C12.2367 7.28585 12.4286 7.09397 12.4286 6.85728C12.4286 6.62059 12.2367 6.42871 12 6.42871" stroke="#707887" stroke-linecap="round" stroke-linejoin="round"/>
</g>
</g>
</svg>
