<svg width="24" height="24" viewBox="0 0 24 24" fill="none" xmlns="http://www.w3.org/2000/svg">
<g clip-path="url(#clip0_1546_967)">
<path d="M20.4912 9.39816C20.4912 14.0905 16.6872 17.8945 11.9948 17.8945C7.30245 17.8945 3.49854 14.0905 3.49854 9.39816C3.49854 4.70578 7.30245 0.901855 11.9948 0.901855C16.6872 0.901855 20.4912 4.70578 20.4912 9.39816Z" stroke="#0F6C56" stroke-linecap="round" stroke-linejoin="round"/>
<path d="M12.3426 4.78523L13.5129 7.13954C13.5391 7.19908 13.5806 7.25061 13.6332 7.28888C13.6858 7.32712 13.7476 7.35073 13.8123 7.35728L16.4116 7.75194C16.4859 7.76161 16.5559 7.79224 16.6135 7.84024C16.671 7.88824 16.7137 7.95164 16.7365 8.023C16.7594 8.09438 16.7614 8.17079 16.7424 8.24327C16.7235 8.31577 16.6842 8.38136 16.6293 8.43237L14.7105 10.2559C14.6819 10.3105 14.6669 10.3712 14.6669 10.4329C14.6669 10.4945 14.6819 10.5552 14.7105 10.6098L15.0779 13.1954C15.0936 13.2702 15.0873 13.3478 15.0597 13.419C15.0321 13.4903 14.9844 13.5519 14.9225 13.5966C14.8605 13.6412 14.787 13.667 14.7107 13.6706C14.6344 13.6743 14.5587 13.6558 14.4928 13.6173L12.1793 12.3925C12.1194 12.3655 12.0544 12.3515 11.9888 12.3515C11.923 12.3515 11.8581 12.3655 11.7982 12.3925L9.48475 13.6173C9.4188 13.6558 9.34308 13.6743 9.26681 13.6706C9.19054 13.667 9.11696 13.6412 9.05503 13.5966C8.99307 13.5519 8.94541 13.4903 8.91783 13.419C8.89023 13.3478 8.88389 13.2702 8.89957 13.1954L9.33505 10.6098C9.35377 10.5498 9.35736 10.486 9.34549 10.4243C9.33361 10.3626 9.30665 10.3047 9.267 10.2559L7.34818 8.41876C7.29728 8.36721 7.26156 8.30264 7.24491 8.23213C7.22828 8.1616 7.23139 8.08787 7.25388 8.01901C7.27635 7.95014 7.31737 7.88879 7.3724 7.84168C7.42745 7.79457 7.49439 7.76353 7.56591 7.75194L10.1652 7.37089C10.2299 7.36434 10.2917 7.34073 10.3443 7.30249C10.3969 7.26422 10.4384 7.21269 10.4646 7.15316L11.6349 4.79884C11.6662 4.73219 11.7156 4.67564 11.7774 4.63557C11.8391 4.59551 11.9109 4.57352 11.9845 4.57209C12.0581 4.57069 12.1307 4.58989 12.194 4.62757C12.2572 4.66523 12.3087 4.71985 12.3426 4.78523Z" stroke="#0F6C56" stroke-linecap="round" stroke-linejoin="round"/>
<path d="M4.63526 13.5657L0.856934 20.1099L4.93951 19.016L6.03343 23.0986L9.31169 17.4205" stroke="#0F6C56" stroke-linecap="round" stroke-linejoin="round"/>
<path d="M19.3644 13.5657L23.1427 20.1099L19.0601 19.016L17.9663 23.0986L14.688 17.4205" stroke="#0F6C56" stroke-linecap="round" stroke-linejoin="round"/>
</g>
<defs>
<clipPath id="clip0_1546_967">
<rect width="24" height="24" fill="white"/>
</clipPath>
</defs>
</svg>
