<svg width="24" height="24" viewBox="0 0 24 24" fill="none" xmlns="http://www.w3.org/2000/svg">
<g clip-path="url(#clip0_1746_1303)">
<path d="M20.4916 9.39816C20.4916 14.0905 16.6876 17.8945 11.9952 17.8945C7.30282 17.8945 3.4989 14.0905 3.4989 9.39816C3.4989 4.70578 7.30282 0.901855 11.9952 0.901855C16.6876 0.901855 20.4916 4.70578 20.4916 9.39816Z" stroke="#103275" stroke-linecap="round" stroke-linejoin="round"/>
<path d="M12.3428 4.78523L13.5132 7.13954C13.5393 7.19908 13.5808 7.25061 13.6334 7.28888C13.686 7.32712 13.7479 7.35073 13.8126 7.35728L16.4118 7.75194C16.4861 7.76161 16.5562 7.79224 16.6137 7.84024C16.6712 7.88824 16.7139 7.95164 16.7368 8.023C16.7596 8.09438 16.7617 8.17079 16.7427 8.24327C16.7237 8.31577 16.6845 8.38136 16.6296 8.43237L14.7107 10.2559C14.6821 10.3105 14.6672 10.3712 14.6672 10.4329C14.6672 10.4945 14.6821 10.5552 14.7107 10.6098L15.0782 13.1954C15.0939 13.2702 15.0875 13.3478 15.0599 13.419C15.0323 13.4903 14.9847 13.5519 14.9227 13.5966C14.8608 13.6412 14.7872 13.667 14.7109 13.6706C14.6347 13.6743 14.559 13.6558 14.493 13.6173L12.1795 12.3925C12.1196 12.3655 12.0547 12.3515 11.989 12.3515C11.9233 12.3515 11.8583 12.3655 11.7985 12.3925L9.48499 13.6173C9.41904 13.6558 9.34332 13.6743 9.26705 13.6706C9.19078 13.667 9.11721 13.6412 9.05527 13.5966C8.99332 13.5519 8.94566 13.4903 8.91808 13.419C8.89048 13.3478 8.88413 13.2702 8.89982 13.1954L9.3353 10.6098C9.35402 10.5498 9.3576 10.486 9.34574 10.4243C9.33386 10.3626 9.30689 10.3047 9.26724 10.2559L7.34842 8.41876C7.29753 8.36721 7.2618 8.30264 7.24516 8.23213C7.22853 8.1616 7.23163 8.08787 7.25412 8.01901C7.2766 7.95014 7.31762 7.88879 7.37265 7.84168C7.42769 7.79457 7.49464 7.76353 7.56616 7.75194L10.1654 7.37089C10.2301 7.36434 10.2919 7.34073 10.3445 7.30249C10.3971 7.26422 10.4386 7.21269 10.4648 7.15316L11.6352 4.79884C11.6665 4.73219 11.7158 4.67564 11.7776 4.63557C11.8394 4.59551 11.9111 4.57352 11.9848 4.57209C12.0584 4.57069 12.1309 4.58989 12.1942 4.62757C12.2575 4.66523 12.309 4.71985 12.3428 4.78523Z" stroke="#103275" stroke-linecap="round" stroke-linejoin="round"/>
<path d="M4.63538 13.5657L0.857056 20.1099L4.93963 19.016L6.03355 23.0986L9.31181 17.4205" stroke="#103275" stroke-linecap="round" stroke-linejoin="round"/>
<path d="M19.3644 13.5657L23.1426 20.1099L19.0601 19.016L17.9662 23.0986L14.6879 17.4205" stroke="#103275" stroke-linecap="round" stroke-linejoin="round"/>
</g>
<defs>
<clipPath id="clip0_1746_1303">
<rect width="24" height="24" fill="white"/>
</clipPath>
</defs>
</svg>
