<svg width="22" height="22" viewBox="0 0 22 22" fill="none" xmlns="http://www.w3.org/2000/svg">
<g clip-path="url(#clip0_3508_137)">
<path d="M9.42847 20.8213H12.5713" stroke="#1C58CF" stroke-linecap="round" stroke-linejoin="round"/>
<path d="M17.2857 9.03571C17.2857 7.36863 16.6236 5.76985 15.4447 4.59104C14.2659 3.41225 12.6671 2.75 11 2.75C9.33295 2.75 7.73417 3.41225 6.55536 4.59104C5.37657 5.76985 4.71432 7.36863 4.71432 9.03571V14.5357C4.71432 15.1609 4.46597 15.7605 4.02393 16.2025C3.58189 16.6446 2.98232 16.8929 2.35718 16.8929H19.6429C19.0178 16.8929 18.4181 16.6446 17.9761 16.2025C17.534 15.7605 17.2857 15.1609 17.2857 14.5357V9.03571Z" stroke="#1C58CF" stroke-linecap="round" stroke-linejoin="round"/>
<path d="M0.785645 8.83132C0.786492 7.33554 1.1432 5.86143 1.82631 4.53075C2.50941 3.20006 3.4993 2.051 4.71422 1.17847" stroke="#1C58CF" stroke-linecap="round" stroke-linejoin="round"/>
<path d="M21.2142 8.83132C21.2134 7.33554 20.8567 5.86143 20.1736 4.53075C19.4905 3.20006 18.5005 2.051 17.2856 1.17847" stroke="#1C58CF" stroke-linecap="round" stroke-linejoin="round"/>
</g>
<defs>
<clipPath id="clip0_3508_137">
<rect width="22" height="22" fill="white"/>
</clipPath>
</defs>
</svg>
