<svg width="48" height="48" viewBox="0 0 48 48" fill="none" xmlns="http://www.w3.org/2000/svg">
<path d="M21.1965 16.0002L21.9336 14.0974C22.058 13.7752 22.2767 13.4981 22.5612 13.3023C22.8456 13.1066 23.1826 13.0013 23.5279 13.0002H24.9336C25.279 13.0013 25.6159 13.1066 25.9004 13.3023C26.1849 13.4981 26.4036 13.7752 26.5279 14.0974L27.2651 16.0002L29.7679 17.4402L31.7907 17.1317C32.1276 17.086 32.4704 17.1414 32.7757 17.291C33.0809 17.4405 33.3348 17.6775 33.505 17.9717L34.1907 19.1717C34.3664 19.4706 34.4475 19.8157 34.423 20.1615C34.3985 20.5074 34.2697 20.8377 34.0536 21.1088L32.8021 22.7031V25.5831L34.0879 27.1774C34.304 27.4485 34.4328 27.7788 34.4573 28.1247C34.4818 28.4705 34.4007 28.8156 34.225 29.1145L33.5393 30.3145C33.3691 30.6087 33.1152 30.8456 32.81 30.9953C32.5047 31.1448 32.1619 31.2003 31.825 31.1545L29.8021 30.846L27.2994 32.286L26.5622 34.1888C26.4379 34.5109 26.2192 34.7881 25.9347 34.9839C25.6502 35.1797 25.3132 35.2849 24.9679 35.286H23.5279C23.1826 35.2849 22.8456 35.1797 22.5612 34.9839C22.2767 34.7881 22.058 34.5109 21.9336 34.1888L21.1965 32.286L18.6936 30.846L16.6708 31.1545C16.334 31.2003 15.9911 31.1448 15.6859 30.9953C15.3807 30.8456 15.1268 30.6087 14.9565 30.3145L14.2708 29.1145C14.0951 28.8156 14.0141 28.4705 14.0386 28.1247C14.0631 27.7788 14.1919 27.4485 14.4079 27.1774L15.6594 25.5831V22.7031L14.3736 21.1088C14.1576 20.8377 14.0288 20.5074 14.0043 20.1615C13.9798 19.8157 14.0608 19.4706 14.2365 19.1717L14.9222 17.9717C15.0925 17.6775 15.3464 17.4405 15.6516 17.291C15.9568 17.1414 16.2997 17.086 16.6365 17.1317L18.6594 17.4402L21.1965 16.0002ZM20.8022 24.1431C20.8022 24.8212 21.0033 25.4841 21.38 26.0479C21.7568 26.6117 22.2922 27.0512 22.9187 27.3107C23.5452 27.5702 24.2346 27.6381 24.8997 27.5058C25.5647 27.3735 26.1757 27.047 26.6552 26.5675C27.1346 26.088 27.4612 25.4771 27.5935 24.812C27.7258 24.1469 27.6579 23.4575 27.3984 22.831C27.1389 22.2046 26.6994 21.6691 26.1356 21.2923C25.5718 20.9156 24.9089 20.7145 24.2308 20.7145C23.3215 20.7145 22.4494 21.0757 21.8064 21.7187C21.1634 22.3617 20.8022 23.2338 20.8022 24.1431Z" stroke="#3DC2A2" stroke-linecap="round" stroke-linejoin="round"/>
</svg>
