<svg width="24" height="24" viewBox="0 0 24 24" fill="none" xmlns="http://www.w3.org/2000/svg">
<path d="M9.19646 4L9.93361 2.09714C10.0579 1.77497 10.2767 1.49785 10.5611 1.30208C10.8456 1.10631 11.1826 1.00102 11.5279 1H12.9336C13.2789 1.00102 13.6159 1.10631 13.9004 1.30208C14.1849 1.49785 14.4036 1.77497 14.5279 2.09714L15.265 4L17.7678 5.44L19.7907 5.13143C20.1275 5.08571 20.4704 5.14115 20.7757 5.29072C21.0809 5.44029 21.3347 5.67722 21.505 5.97143L22.1907 7.17143C22.3664 7.47031 22.4475 7.81545 22.423 8.16129C22.3985 8.50713 22.2697 8.83742 22.0535 9.10857L20.8021 10.7029V13.5829L22.0878 15.1771C22.304 15.4483 22.4327 15.7786 22.4573 16.1244C22.4818 16.4703 22.4007 16.8154 22.225 17.1143L21.5393 18.3143C21.369 18.6085 21.1151 18.8454 20.81 18.995C20.5047 19.1445 20.1618 19.2001 19.825 19.1543L17.8021 18.8457L15.2993 20.2857L14.5622 22.1886C14.4379 22.5107 14.2191 22.7879 13.9347 22.9837C13.6502 23.1794 13.3132 23.2847 12.9679 23.2857H11.5279C11.1826 23.2847 10.8456 23.1794 10.5611 22.9837C10.2767 22.7879 10.0579 22.5107 9.93361 22.1886L9.19646 20.2857L6.69361 18.8457L4.67075 19.1543C4.33393 19.2001 3.9911 19.1445 3.68586 18.995C3.38063 18.8454 3.12674 18.6085 2.95646 18.3143L2.27075 17.1143C2.09503 16.8154 2.01409 16.4703 2.03857 16.1244C2.06305 15.7786 2.19182 15.4483 2.40789 15.1771L3.65932 13.5829V10.7029L2.37361 9.10857C2.15754 8.83742 2.02876 8.50713 2.00428 8.16129C1.9798 7.81545 2.06075 7.47031 2.23646 7.17143L2.92218 5.97143C3.09246 5.67722 3.34634 5.44029 3.65157 5.29072C3.95682 5.14115 4.29964 5.08571 4.63646 5.13143L6.65932 5.44L9.19646 4ZM8.80218 12.1429C8.80218 12.821 9.00326 13.4838 9.37999 14.0477C9.75674 14.6115 10.2922 15.0509 10.9187 15.3104C11.5452 15.5699 12.2346 15.6378 12.8996 15.5055C13.5647 15.3733 14.1756 15.0467 14.6551 14.5672C15.1346 14.0877 15.4611 13.4768 15.5934 12.8117C15.7257 12.1467 15.6578 11.4573 15.3983 10.8308C15.1388 10.2043 14.6994 9.66883 14.1356 9.2921C13.5717 8.91537 12.9089 8.71429 12.2307 8.71429C11.3214 8.71429 10.4494 9.0755 9.80639 9.7185C9.16341 10.3615 8.80218 11.2335 8.80218 12.1429Z" stroke="black" stroke-linecap="round" stroke-linejoin="round"/>
</svg>
