<svg width="26" height="24" viewBox="0 0 26 24" fill="none" xmlns="http://www.w3.org/2000/svg">
<g clip-path="url(#clip0_1515_782)">
<path d="M13.8401 1.86871L16.5658 7.37157C16.6278 7.51125 16.7253 7.63222 16.8487 7.72246C16.972 7.81269 17.1168 7.86903 17.2687 7.88585L23.2858 8.77728C23.4601 8.79967 23.6244 8.87117 23.7594 8.98344C23.8945 9.09569 23.995 9.24408 24.0488 9.41124C24.1028 9.57842 24.108 9.75749 24.0639 9.92753C24.02 10.0976 23.9285 10.2516 23.8001 10.3716L19.4629 14.6744C19.3524 14.7778 19.2692 14.9073 19.2214 15.051C19.1734 15.1947 19.1622 15.3481 19.1886 15.4973L20.2344 21.5486C20.2647 21.7226 20.2455 21.9014 20.1792 22.065C20.1128 22.2285 20.0019 22.3701 19.8589 22.4738C19.7161 22.5774 19.5469 22.6388 19.3709 22.6511C19.1948 22.6633 19.0188 22.6259 18.8629 22.5429L13.4458 19.6801C13.3071 19.612 13.1546 19.5767 13.0001 19.5767C12.8456 19.5767 12.6931 19.612 12.5544 19.6801L7.13726 22.5429C6.98142 22.6259 6.80545 22.6633 6.62937 22.6511C6.4533 22.6388 6.28418 22.5774 6.1413 22.4738C5.9984 22.3701 5.88745 22.2285 5.82107 22.065C5.75471 21.9014 5.73556 21.7226 5.76584 21.5486L6.81155 15.4287C6.83805 15.2796 6.82684 15.1262 6.77894 14.9824C6.73105 14.8387 6.64796 14.7093 6.53726 14.6059L2.1487 10.3716C2.01886 10.2483 1.92756 10.09 1.88584 9.91594C1.84412 9.74184 1.85378 9.55937 1.91365 9.39065C1.97352 9.22193 2.08102 9.07419 2.22315 8.96532C2.36528 8.85646 2.53592 8.79113 2.71441 8.77728L8.73155 7.88585C8.88344 7.86903 9.02826 7.81269 9.15158 7.72246C9.27491 7.63222 9.37242 7.51125 9.43441 7.37157L12.1601 1.86871C12.2343 1.70844 12.3529 1.57275 12.5017 1.47765C12.6506 1.38256 12.8235 1.33203 13.0001 1.33203C13.1767 1.33203 13.3497 1.38256 13.4985 1.47765C13.6474 1.57275 13.7659 1.70844 13.8401 1.86871Z" stroke="black" stroke-width="2" stroke-linecap="round" stroke-linejoin="round"/>
</g>
<defs>
<clipPath id="clip0_1515_782">
<rect width="26" height="24" fill="white"/>
</clipPath>
</defs>
</svg>
