<svg width="38" height="36" viewBox="0 0 38 36" fill="none" xmlns="http://www.w3.org/2000/svg">
<path d="M20.2276 3.22504L24.2114 11.25C24.302 11.4537 24.4445 11.6302 24.6248 11.7618C24.805 11.8933 25.0167 11.9755 25.2386 12L34.0328 13.3C34.2877 13.3327 34.5277 13.437 34.7251 13.6007C34.9225 13.7644 35.0694 13.9808 35.148 14.2246C35.227 14.4684 35.2345 14.7295 35.1701 14.9775C35.1059 15.2255 34.9722 15.4501 34.7845 15.625L28.4456 21.9C28.284 22.0509 28.1625 22.2396 28.0926 22.4492C28.0224 22.6588 28.0061 22.8825 28.0447 23.1L29.5731 31.9249C29.6174 32.1787 29.5894 32.4394 29.4924 32.6779C29.3954 32.9164 29.2333 33.1229 29.0244 33.2742C28.8157 33.4252 28.5684 33.5147 28.311 33.5327C28.0537 33.5504 27.7964 33.4959 27.5687 33.3749L19.6514 29.1999C19.4487 29.1007 19.2258 29.0492 19 29.0492C18.7741 29.0492 18.5513 29.1007 18.3485 29.1999L10.4312 33.3749C10.2034 33.4959 9.9462 33.5504 9.68886 33.5327C9.43152 33.5147 9.18435 33.4252 8.97552 33.2742C8.76666 33.1229 8.6045 32.9164 8.50749 32.6779C8.4105 32.4394 8.38252 32.1787 8.42677 31.9249L9.95512 23C9.99385 22.7825 9.97747 22.5588 9.90746 22.3492C9.83746 22.1396 9.71602 21.9509 9.55424 21.8L3.14018 15.625C2.95042 15.4453 2.81697 15.2145 2.756 14.9606C2.69502 14.7067 2.70914 14.4406 2.79664 14.1945C2.88415 13.9485 3.04127 13.733 3.249 13.5743C3.45672 13.4155 3.70612 13.3202 3.96699 13.3L12.7613 12C12.9833 11.9755 13.1949 11.8933 13.3752 11.7618C13.5554 11.6302 13.6979 11.4537 13.7885 11.25L17.7723 3.22504C17.8807 2.99131 18.054 2.79343 18.2715 2.65475C18.4891 2.51607 18.7418 2.44238 19 2.44238C19.2581 2.44238 19.5109 2.51607 19.7284 2.65475C19.9459 2.79343 20.1192 2.99131 20.2276 3.22504Z" stroke="#FCD715" stroke-width="2" stroke-linecap="round" stroke-linejoin="round"/>
</svg>
