<svg width="24" height="24" viewBox="0 0 24 24" fill="none" xmlns="http://www.w3.org/2000/svg">
<path d="M21.9772 7.4285L17.1429 9.57136V6.99993C17.1429 6.54527 16.9623 6.10924 16.6408 5.78774C16.3193 5.46626 15.8833 5.28564 15.4286 5.28564H2.57146C2.1168 5.28564 1.68077 5.46626 1.35928 5.78774C1.03779 6.10924 0.857178 6.54527 0.857178 6.99993V18.9999C0.857178 19.4546 1.03779 19.8907 1.35928 20.2121C1.68077 20.5335 2.1168 20.7142 2.57146 20.7142H15.4286C15.8833 20.7142 16.3193 20.5335 16.6408 20.2121C16.9623 19.8907 17.1429 19.4546 17.1429 18.9999V16.4285L21.9772 18.5714C22.1075 18.6216 22.2482 18.6394 22.3869 18.6228C22.5256 18.6063 22.6583 18.5563 22.7731 18.4767C22.888 18.3974 22.9817 18.2911 23.0462 18.1671C23.1107 18.0432 23.1439 17.9053 23.1429 17.7656V8.23422C23.1439 8.09452 23.1107 7.95669 23.0462 7.83275C22.9817 7.7088 22.888 7.60248 22.7731 7.52306C22.6583 7.44362 22.5256 7.3935 22.3869 7.377C22.2482 7.36053 22.1075 7.3782 21.9772 7.4285Z" stroke="black" stroke-linecap="round" stroke-linejoin="round"/>
</svg>
