<svg width="48" height="48" viewBox="0 0 48 48" fill="none" xmlns="http://www.w3.org/2000/svg">
<g clip-path="url(#clip0_364_936)">
<path d="M1.5 28.5V46.5" stroke="#1C58CF" stroke-width="2" stroke-linecap="round" stroke-linejoin="round"/>
<path d="M1.5 43.5H34.5C34.5 41.9087 33.8679 40.3826 32.7426 39.2574C31.6174 38.1321 30.0913 37.5 28.5 37.5H21C21 35.9087 20.3679 34.3826 19.2426 33.2574C18.1174 32.1321 16.5913 31.5 15 31.5H1.5" stroke="#1C58CF" stroke-width="2" stroke-linecap="round" stroke-linejoin="round"/>
<path d="M13.5 37.5H21" stroke="#1C58CF" stroke-width="2" stroke-linecap="round" stroke-linejoin="round"/>
<path d="M15.75 6C15.8983 6 16.0433 6.04399 16.1667 6.1264C16.29 6.20881 16.3861 6.32594 16.4429 6.46299C16.4997 6.60003 16.5145 6.75083 16.4856 6.89632C16.4566 7.0418 16.3852 7.17544 16.2803 7.28033C16.1754 7.38522 16.0418 7.45665 15.8963 7.48559C15.7508 7.51453 15.6 7.49968 15.463 7.44291C15.3259 7.38614 15.2088 7.29001 15.1264 7.16668C15.044 7.04334 15 6.89834 15 6.75C15 6.55109 15.079 6.36032 15.2197 6.21967C15.3603 6.07902 15.5511 6 15.75 6Z" stroke="#1C58CF" stroke-width="2" stroke-linecap="round" stroke-linejoin="round"/>
<path d="M41.25 18C41.3983 18 41.5433 18.044 41.6667 18.1264C41.79 18.2088 41.8861 18.3259 41.9429 18.463C41.9997 18.6 42.0145 18.7508 41.9856 18.8963C41.9566 19.0418 41.8852 19.1754 41.7803 19.2803C41.6754 19.3852 41.5418 19.4566 41.3963 19.4856C41.2508 19.5145 41.1 19.4997 40.963 19.4429C40.8259 19.3861 40.7088 19.29 40.6264 19.1667C40.544 19.0433 40.5 18.8983 40.5 18.75C40.5 18.5511 40.579 18.3603 40.7197 18.2197C40.8603 18.079 41.0511 18 41.25 18Z" stroke="#1C58CF" stroke-width="2" stroke-linecap="round" stroke-linejoin="round"/>
<path d="M13.27 1.5H43.73C44.4695 1.50792 45.1758 1.80805 45.6948 2.33489C46.2138 2.86173 46.5032 3.57249 46.5 4.312V21.188C46.5032 21.9275 46.2138 22.6383 45.6948 23.1651C45.1758 23.6919 44.4695 23.9921 43.73 24H13.27C12.5305 23.9921 11.8242 23.6919 11.3053 23.1651C10.7863 22.6383 10.4968 21.9275 10.5 21.188V4.312C10.4968 3.57249 10.7863 2.86173 11.3053 2.33489C11.8242 1.80805 12.5305 1.50792 13.27 1.5Z" stroke="#1C58CF" stroke-width="2" stroke-linecap="round" stroke-linejoin="round"/>
<path d="M28.5 16.5C30.9853 16.5 33 14.4853 33 12C33 9.51472 30.9853 7.5 28.5 7.5C26.0147 7.5 24 9.51472 24 12C24 14.4853 26.0147 16.5 28.5 16.5Z" stroke="#1C58CF" stroke-width="2" stroke-linecap="round" stroke-linejoin="round"/>
</g>
<defs>
<clipPath id="clip0_364_936">
<rect width="48" height="48" fill="white"/>
</clipPath>
</defs>
</svg>
