<svg width="48" height="48" viewBox="0 0 48 48" fill="none" xmlns="http://www.w3.org/2000/svg">
<g clip-path="url(#clip0_364_935)">
<path d="M23.128 27.5361C23.2095 27.375 23.334 27.2397 23.4878 27.1451C23.6415 27.0505 23.8185 27.0005 23.999 27.0005C24.1795 27.0005 24.3565 27.0505 24.5103 27.1451C24.664 27.2397 24.7886 27.375 24.87 27.5361L26.896 31.6201C26.9663 31.7601 27.0694 31.8811 27.1965 31.9727C27.3236 32.0642 27.471 32.1238 27.626 32.1461L32.17 32.8021C32.3479 32.827 32.5153 32.9011 32.6535 33.0159C32.7916 33.1307 32.895 33.2818 32.952 33.4521C33.0077 33.6214 33.0145 33.8029 32.9717 33.9759C32.9289 34.1489 32.8382 34.3063 32.71 34.4301L29.41 37.6301C29.2992 37.7376 29.2162 37.8704 29.1681 38.017C29.12 38.1637 29.1083 38.3199 29.134 38.4721L29.912 42.9821C29.9424 43.1585 29.922 43.34 29.8533 43.5053C29.7846 43.6706 29.6704 43.8131 29.524 43.9161C29.3766 44.0207 29.2032 44.0826 29.0229 44.0949C28.8425 44.1073 28.6623 44.0696 28.502 43.9861L24.454 41.8681C24.3138 41.7952 24.1581 41.7571 24 41.7571C23.842 41.7571 23.6862 41.7952 23.546 41.8681L19.498 43.9861C19.3377 44.0696 19.1575 44.1073 18.9772 44.0949C18.7968 44.0826 18.6234 44.0207 18.476 43.9161C18.3296 43.8131 18.2154 43.6706 18.1467 43.5053C18.078 43.34 18.0577 43.1585 18.088 42.9821L18.864 38.4721C18.8901 38.3201 18.8789 38.1639 18.8311 38.0172C18.7834 37.8705 18.7006 37.7377 18.59 37.6301L15.29 34.4301C15.1614 34.3066 15.0705 34.1492 15.0276 33.9761C14.9848 33.803 14.9919 33.6213 15.048 33.4521C15.1045 33.2818 15.2074 33.1307 15.3453 33.0158C15.4831 32.901 15.6503 32.8269 15.828 32.8021L20.372 32.1461C20.5273 32.1237 20.675 32.0642 20.8024 31.9727C20.9298 31.8811 21.0333 31.7602 21.104 31.6201L23.128 27.5361Z" stroke="#1C58CF" stroke-width="2" stroke-linecap="round" stroke-linejoin="round"/>
<path d="M12 46.5H7.5C6.70435 46.5 5.94129 46.1839 5.37868 45.6213C4.81607 45.0587 4.5 44.2956 4.5 43.5V25.5" stroke="#1C58CF" stroke-width="2" stroke-linecap="round" stroke-linejoin="round"/>
<path d="M43.5 25.5V43.5C43.5 44.2956 43.1839 45.0587 42.6213 45.6213C42.0587 46.1839 41.2956 46.5 40.5 46.5H36" stroke="#1C58CF" stroke-width="2" stroke-linecap="round" stroke-linejoin="round"/>
<path d="M43.796 7.10314e-07H7.204C6.8626 -5.63511e-05 6.53136 0.116197 6.26487 0.329604C5.99839 0.543011 5.81255 0.840836 5.738 1.174L3 13.5C3 14.6935 3.47411 15.8381 4.31802 16.682C5.16193 17.5259 6.30653 18 7.5 18C8.69347 18 9.83807 17.5259 10.682 16.682C11.5259 15.8381 12 14.6935 12 13.5C12 14.6935 12.4741 15.8381 13.318 16.682C14.1619 17.5259 15.3065 18 16.5 18C17.6935 18 18.8381 17.5259 19.682 16.682C20.5259 15.8381 21 14.6935 21 13.5C21 14.6935 21.4741 15.8381 22.318 16.682C23.1619 17.5259 24.3065 18 25.5 18C26.6935 18 27.8381 17.5259 28.682 16.682C29.5259 15.8381 30 14.6935 30 13.5C30 14.6935 30.4741 15.8381 31.318 16.682C32.1619 17.5259 33.3065 18 34.5 18C35.6935 18 36.8381 17.5259 37.682 16.682C38.5259 15.8381 39 14.6935 39 13.5C39 14.6935 39.4741 15.8381 40.318 16.682C41.1619 17.5259 42.3065 18 43.5 18C44.6935 18 45.8381 17.5259 46.682 16.682C47.5259 15.8381 48 14.6935 48 13.5L45.26 1.174C45.1862 0.840826 45.0008 0.542838 44.7346 0.32935C44.4684 0.115861 44.1373 -0.000331479 43.796 7.10314e-07Z" stroke="#1C58CF" stroke-width="2" stroke-linecap="round" stroke-linejoin="round"/>
</g>
<defs>
<clipPath id="clip0_364_935">
<rect width="48" height="48" fill="white"/>
</clipPath>
</defs>
</svg>
