<svg width="89" height="106" viewBox="0 0 89 106" fill="none" xmlns="http://www.w3.org/2000/svg">
<g id="Group 11">
<path id="Vector" d="M25.3438 52.7446H52.6875" stroke="#1C58CF" stroke-width="2" stroke-linecap="round" stroke-linejoin="round"/>
<path id="Vector_2" d="M25.3438 91.8071H40.9688" stroke="#1C58CF" stroke-width="2" stroke-linecap="round" stroke-linejoin="round"/>
<path id="Vector_3" d="M48.7813 119.151H9.71875C7.64675 119.151 5.65961 118.328 4.19448 116.863C2.72935 115.398 1.90625 113.41 1.90625 111.338V29.3071C1.90625 27.2351 2.72935 25.248 4.19448 23.7829C5.65961 22.3177 7.64675 21.4946 9.71875 21.4946H29.25C29.25 16.3146 31.3078 11.3468 34.9706 7.68395C38.6334 4.02113 43.6012 1.96338 48.7813 1.96338C53.9613 1.96338 58.9291 4.02113 62.5919 7.68395C66.2548 11.3468 68.3125 16.3146 68.3125 21.4946H87.8438C89.9158 21.4946 91.9029 22.3177 93.368 23.7829C94.8331 25.248 95.6563 27.2351 95.6563 29.3071V41.0259" stroke="#1C58CF" stroke-width="2" stroke-linecap="round" stroke-linejoin="round"/>
<path id="Vector_4" d="M48.7813 17.5884C49.1675 17.5884 49.5452 17.7029 49.8663 17.9175C50.1875 18.1322 50.4379 18.4372 50.5857 18.7941C50.7335 19.151 50.7722 19.5437 50.6968 19.9225C50.6215 20.3014 50.4355 20.6494 50.1623 20.9226C49.8892 21.1957 49.5412 21.3817 49.1623 21.4571C48.7834 21.5325 48.3907 21.4938 48.0338 21.346C47.6769 21.1981 47.3719 20.9478 47.1573 20.6266C46.9427 20.3054 46.8281 19.9278 46.8281 19.5415C46.8281 19.0235 47.0339 18.5267 47.4002 18.1604C47.7665 17.7942 48.2632 17.5884 48.7813 17.5884Z" fill="#1C58CF" stroke="#1C58CF" stroke-width="2" stroke-linecap="round" stroke-linejoin="round"/>
<path id="Vector_5" d="M87.8438 119.151C105.103 119.151 119.094 105.16 119.094 87.9009C119.094 70.642 105.103 56.6509 87.8438 56.6509C70.5849 56.6509 56.5938 70.642 56.5938 87.9009C56.5938 105.16 70.5849 119.151 87.8438 119.151Z" stroke="#1C58CF" stroke-width="2" stroke-linecap="round" stroke-linejoin="round"/>
<path id="Vector_6" d="M101.771 78.8123L86.6406 98.9893C86.3042 99.4368 85.8756 99.8068 85.3839 100.074C84.8922 100.342 84.3487 100.501 83.7903 100.54C83.2319 100.58 82.6715 100.499 82.147 100.303C81.6225 100.108 81.1461 99.8016 80.75 99.406L72.9375 91.5935" stroke="#1C58CF" stroke-width="2" stroke-linecap="round" stroke-linejoin="round"/>
</g>
</svg>
