<svg width="48" height="48" viewBox="0 0 48 48" fill="none" xmlns="http://www.w3.org/2000/svg">
<path d="M1.51196 33H33.428C34.1472 33.0013 34.843 32.7441 35.3886 32.2753C35.9341 31.8065 36.293 31.1573 36.4 30.446L40.128 5.554C40.2347 4.84373 40.5928 4.19534 41.1371 3.72667C41.6813 3.258 42.3757 3.00016 43.094 3H46.512" stroke="#1C58CF" stroke-width="2" stroke-linecap="round" stroke-linejoin="round"/>
<path d="M15.012 15H6.01196C5.18354 15 4.51196 15.6716 4.51196 16.5V25.5C4.51196 26.3284 5.18354 27 6.01196 27H15.012C15.8404 27 16.512 26.3284 16.512 25.5V16.5C16.512 15.6716 15.8404 15 15.012 15Z" stroke="#1C58CF" stroke-width="2" stroke-linecap="round" stroke-linejoin="round"/>
<path d="M30.012 9H18.012C17.1835 9 16.512 9.67157 16.512 10.5V25.5C16.512 26.3284 17.1835 27 18.012 27H30.012C30.8404 27 31.512 26.3284 31.512 25.5V10.5C31.512 9.67157 30.8404 9 30.012 9Z" stroke="#1C58CF" stroke-width="2" stroke-linecap="round" stroke-linejoin="round"/>
<path d="M8.26196 45C10.333 45 12.012 43.3211 12.012 41.25C12.012 39.1789 10.333 37.5 8.26196 37.5C6.1909 37.5 4.51196 39.1789 4.51196 41.25C4.51196 43.3211 6.1909 45 8.26196 45Z" stroke="#1C58CF" stroke-width="2" stroke-linecap="round" stroke-linejoin="round"/>
<path d="M29.262 45C31.333 45 33.012 43.3211 33.012 41.25C33.012 39.1789 31.333 37.5 29.262 37.5C27.1909 37.5 25.512 39.1789 25.512 41.25C25.512 43.3211 27.1909 45 29.262 45Z" stroke="#1C58CF" stroke-width="2" stroke-linecap="round" stroke-linejoin="round"/>
</svg>
