<svg width="512" height="512" viewBox="0 0 512 512" fill="none" xmlns="http://www.w3.org/2000/svg">
<path d="M496.762 250.809C496.762 117.45 388.643 9.50977 255.463 9.50977H15.0588V502.49H289.295L238.279 391.865C160.59 391.865 97.4013 328.855 97.4013 250.988C97.4013 173.121 160.411 110.111 238.279 110.111C316.146 110.111 379.156 173.121 379.156 250.988C379.156 302.362 351.589 347.293 310.418 371.817L370.742 502.49H475.998L434.647 412.809C473.312 370.027 496.941 313.282 496.941 250.988L496.762 250.809Z" fill="#1C58CF"/>
<path d="M239.174 323.302C278.719 323.302 310.777 291.245 310.777 251.7C310.777 212.155 278.719 180.098 239.174 180.098C199.63 180.098 167.572 212.155 167.572 251.7C167.572 291.245 199.63 323.302 239.174 323.302Z" fill="#1C58CF"/>
</svg>
