<svg width="716" height="512" viewBox="0 0 716 512" fill="none" xmlns="http://www.w3.org/2000/svg">
<path d="M26.1396 420.978V26.7378H156.633V420.978H26.1396ZM107.968 297.057V221.497V106.206V26.7378H217.766C248.264 26.7378 275.052 32.4949 298.146 44.0036C321.24 55.5122 339.321 71.4752 352.397 91.8813C365.473 112.287 372.002 135.737 372.002 162.224C372.002 189.144 365.467 212.708 352.397 232.897C339.327 253.087 321.024 268.834 297.492 280.121C273.961 291.408 246.298 297.051 214.499 297.051H107.968V297.057ZM278.808 446.259C170.272 424.004 137.881 295.822 137.881 295.822L261.76 259.982C261.76 259.982 285.627 375.467 332.792 410.738C383.117 448.37 408.495 445.787 401.494 446.913C374.218 451.311 335.349 457.853 278.808 446.259Z" fill="#44CCA8"/>
<path d="M253.805 165.262C253.805 190.123 230.779 210.278 202.378 210.278C190.405 210.278 150.951 210.278 150.951 210.278C150.951 210.278 150.951 179.644 150.951 165.262C150.951 152.474 150.951 120.246 150.951 120.246C150.951 120.246 188.581 120.246 202.378 120.246C230.779 120.246 253.805 140.402 253.805 165.262Z" fill="white"/>
<path d="M460.598 455.105C432.549 455.105 406.455 450.122 382.315 440.178C358.17 430.233 337.133 416.37 319.211 398.592C301.282 380.825 287.258 360.124 277.143 336.486C267.028 312.855 261.965 287.357 261.965 259.988C261.965 232.266 266.931 206.677 276.876 183.222C286.809 159.767 300.748 139.241 318.677 121.645C336.599 104.05 357.551 90.3735 381.514 80.5943C405.477 70.8208 431.481 65.9341 459.53 65.9341C487.925 65.9341 514.11 70.8208 538.079 80.5943C562.043 90.3735 582.983 104.05 600.917 121.645C618.84 139.241 632.779 159.858 642.718 183.489C652.651 207.132 657.629 232.801 657.629 260.523C657.629 287.892 652.651 313.395 642.718 337.027C632.773 360.67 618.84 381.275 600.917 398.871C582.989 416.461 562.128 430.239 538.346 440.189C514.554 450.128 488.636 455.105 460.598 455.105ZM587.228 485.831L472.071 358.548L595.882 293.905L690.406 389.865L587.228 485.831Z" fill="#159096"/>
<path d="M459.757 347.591C506.833 347.591 544.995 309.386 544.995 262.258C544.995 215.129 506.833 176.924 459.757 176.924C412.681 176.924 374.519 215.129 374.519 262.258C374.519 309.386 412.681 347.591 459.757 347.591Z" fill="white"/>
<path d="M460.212 307.734C484.619 307.734 504.405 287.926 504.405 263.492C504.405 239.058 484.619 219.25 460.212 219.25C435.804 219.25 416.019 239.058 416.019 263.492C416.019 287.926 435.804 307.734 460.212 307.734Z" fill="#239E9E"/>
</svg>
