<svg width="128" height="20" viewBox="0 0 128 19" fill="none" xmlns="http://www.w3.org/2000/svg">
<path d="M39.0362 17.8571L35.7269 13.1149C35.5213 13.1406 35.3093 13.1406 35.1036 13.1406H31.4474V17.8571H28.4402V1.66431H35.1036C39.3575 1.66431 41.9984 3.83619 41.9984 7.42174C41.9984 9.87636 40.7518 11.6756 38.5542 12.5302L42.2747 17.8507H39.0362V17.8571ZM34.9623 4.20889H31.4474V10.6603H34.9623C37.5968 10.6603 38.9655 9.45869 38.9655 7.42174C38.9655 5.38479 37.6032 4.20889 34.9623 4.20889Z" fill="white"/>
<path d="M56.6426 12.6075H46.9526C47.2996 14.4131 48.8032 15.5697 50.9558 15.5697C52.3438 15.5697 53.4297 15.1328 54.31 14.2268L55.8586 16.0067C54.747 17.324 53.012 18.0179 50.8851 18.0179C46.747 18.0179 44.061 15.3577 44.061 11.6822C44.061 8.00669 46.7663 5.36572 50.4482 5.36572C54.1301 5.36572 56.694 7.8846 56.694 11.7464C56.694 11.9778 56.6683 12.3248 56.649 12.6011L56.6426 12.6075ZM46.9269 10.6862H53.9373C53.706 8.90628 52.3438 7.67898 50.4418 7.67898C48.5398 7.67898 47.2032 8.88058 46.9269 10.6862Z" fill="white"/>
<path d="M59.0715 1.73494C59.0715 0.764659 59.8554 0 60.9221 0C61.9887 0 62.7727 0.719679 62.7727 1.66426C62.7727 2.67952 62.008 3.46988 60.9221 3.46988C59.8361 3.46988 59.0715 2.70522 59.0715 1.73494ZM59.4634 5.50683H62.355V17.857H59.4634V5.50683Z" fill="white"/>
<path d="M86.8049 10.7758V17.8505H83.9133V11.1421C83.9133 8.94452 82.898 7.87785 81.1374 7.87785C79.2418 7.87785 77.9245 9.12444 77.9245 11.5791V17.8441H75.033V11.1357C75.033 8.93809 74.0177 7.87143 72.2571 7.87143C70.3358 7.87143 69.0442 9.11801 69.0442 11.5726V17.8377H66.1526V5.50677H68.9029V7.08106C69.8282 5.96942 71.2611 5.37183 72.951 5.37183C74.7567 5.37183 76.2603 6.0401 77.1149 7.42805C78.1109 6.15576 79.7751 5.37183 81.7414 5.37183C84.7229 5.37183 86.8049 7.06179 86.8049 10.7823V10.7758Z" fill="white"/>
<path d="M103.621 11.682C103.621 15.5246 100.961 18.0178 97.3558 18.0178C95.6659 18.0178 94.2329 17.4395 93.2627 16.2571V17.8507H90.5125V0.694092H93.404V7.01056C94.4 5.89891 95.788 5.36558 97.3623 5.36558C100.973 5.36558 103.627 7.83947 103.627 11.682H103.621ZM100.684 11.682C100.684 9.32381 99.11 7.8202 97.0281 7.8202C94.9462 7.8202 93.3526 9.32381 93.3526 11.682C93.3526 14.0403 94.9462 15.5439 97.0281 15.5439C99.11 15.5439 100.684 14.0403 100.684 11.682Z" fill="white"/>
<path d="M113.523 5.36572V8.11592C113.266 8.07094 113.06 8.04524 112.855 8.04524C110.657 8.04524 109.269 9.34323 109.269 11.8621V17.8509H106.378V5.50709H109.128V7.31271C109.963 6.01472 111.467 5.37215 113.523 5.37215V5.36572Z" fill="white"/>
<path d="M114.84 11.6822C114.84 7.98098 117.616 5.36572 121.407 5.36572C125.198 5.36572 128 7.98098 128 11.6822C128 15.3834 125.25 18.0179 121.407 18.0179C117.565 18.0179 114.84 15.3834 114.84 11.6822ZM125.089 11.6822C125.089 9.32396 123.515 7.82034 121.414 7.82034C119.312 7.82034 117.757 9.32396 117.757 11.6822C117.757 14.0404 119.332 15.544 121.414 15.544C123.496 15.544 125.089 14.0404 125.089 11.6822Z" fill="white"/>
<path d="M17.2916 8.98338C17.2916 4.19623 13.4104 0.321533 8.62972 0.321533H0V18.0179H9.84418L8.01285 14.0468C5.2241 14.0468 2.95582 11.785 2.95582 8.98981C2.95582 6.19463 5.21767 3.93278 8.01285 3.93278C10.808 3.93278 13.0699 6.19463 13.0699 8.98981C13.0699 10.834 12.0803 12.4468 10.6024 13.3272L12.7679 18.0179H16.5462L15.0618 14.7986C16.4498 13.2629 17.298 11.226 17.298 8.98981L17.2916 8.98338Z" fill="white"/>
<path d="M8.04501 11.5856C9.46454 11.5856 10.6153 10.4349 10.6153 9.01535C10.6153 7.59582 9.46454 6.44507 8.04501 6.44507C6.62549 6.44507 5.47473 7.59582 5.47473 9.01535C5.47473 10.4349 6.62549 11.5856 8.04501 11.5856Z" fill="white"/>
</svg>
