<svg width="128" height="20" viewBox="0 0 128 20" fill="none" xmlns="http://www.w3.org/2000/svg">
<path d="M39.0362 18.8483L35.7269 14.1061C35.5213 14.1318 35.3093 14.1318 35.1036 14.1318H31.4474V18.8483H28.4402V2.65552H35.1036C39.3575 2.65552 41.9984 4.82741 41.9984 8.41295C41.9984 10.8676 40.7518 12.6668 38.5542 13.5214L42.2747 18.8419H39.0362V18.8483ZM34.9623 5.2001H31.4474V11.6515H34.9623C37.5968 11.6515 38.9655 10.4499 38.9655 8.41295C38.9655 6.376 37.6032 5.2001 34.9623 5.2001Z" fill="#231F20"/>
<path d="M56.6426 13.5987H46.9526C47.2996 15.4043 48.8032 16.561 50.9558 16.561C52.3438 16.561 53.4297 16.124 54.31 15.218L55.8586 16.9979C54.747 18.3152 53.012 19.0091 50.8851 19.0091C46.747 19.0091 44.061 16.3489 44.061 12.6734C44.061 8.9979 46.7663 6.35693 50.4482 6.35693C54.1301 6.35693 56.694 8.87581 56.694 12.7377C56.694 12.969 56.6683 13.316 56.649 13.5923L56.6426 13.5987ZM46.9269 11.6774H53.9373C53.706 9.8975 52.3438 8.67019 50.4418 8.67019C48.5398 8.67019 47.2032 9.87179 46.9269 11.6774Z" fill="#231F20"/>
<path d="M59.0715 2.72615C59.0715 1.75587 59.8554 0.991211 60.9221 0.991211C61.9887 0.991211 62.7727 1.71089 62.7727 2.65547C62.7727 3.67073 62.008 4.46109 60.9221 4.46109C59.8361 4.46109 59.0715 3.69643 59.0715 2.72615ZM59.4634 6.49804H62.355V18.8482H59.4634V6.49804Z" fill="#231F20"/>
<path d="M86.8049 11.7671V18.8418H83.9133V12.1333C83.9133 9.93573 82.898 8.86906 81.1374 8.86906C79.2418 8.86906 77.9245 10.1156 77.9245 12.5703V18.8353H75.033V12.1269C75.033 9.9293 74.0177 8.86264 72.2571 8.86264C70.3358 8.86264 69.0442 10.1092 69.0442 12.5638V18.8289H66.1526V6.49798H68.9029V8.07227C69.8282 6.96063 71.2611 6.36304 72.951 6.36304C74.7567 6.36304 76.2603 7.03131 77.1149 8.41926C78.1109 7.14697 79.7751 6.36304 81.7414 6.36304C84.7229 6.36304 86.8049 8.053 86.8049 11.7735V11.7671Z" fill="#231F20"/>
<path d="M103.621 12.6733C103.621 16.5158 100.961 19.009 97.3558 19.009C95.6659 19.009 94.2329 18.4307 93.2627 17.2484V18.8419H90.5125V1.6853H93.404V8.00177C94.4 6.89012 95.788 6.35679 97.3623 6.35679C100.973 6.35679 103.627 8.83068 103.627 12.6733H103.621ZM100.684 12.6733C100.684 10.315 99.11 8.81141 97.0281 8.81141C94.9462 8.81141 93.3526 10.315 93.3526 12.6733C93.3526 15.0315 94.9462 16.5351 97.0281 16.5351C99.11 16.5351 100.684 15.0315 100.684 12.6733Z" fill="#231F20"/>
<path d="M113.523 6.35693V9.10713C113.266 9.06215 113.06 9.03645 112.855 9.03645C110.657 9.03645 109.269 10.3344 109.269 12.8533V18.8421H106.378V6.4983H109.128V8.30392C109.963 7.00593 111.467 6.36336 113.523 6.36336V6.35693Z" fill="#231F20"/>
<path d="M114.84 12.6734C114.84 8.97219 117.616 6.35693 121.407 6.35693C125.198 6.35693 128 8.97219 128 12.6734C128 16.3746 125.25 19.0091 121.407 19.0091C117.565 19.0091 114.84 16.3746 114.84 12.6734ZM125.089 12.6734C125.089 10.3152 123.515 8.81155 121.414 8.81155C119.312 8.81155 117.757 10.3152 117.757 12.6734C117.757 15.0316 119.332 16.5352 121.414 16.5352C123.496 16.5352 125.089 15.0316 125.089 12.6734Z" fill="#231F20"/>
<path d="M17.2916 9.97459C17.2916 5.18744 13.4104 1.31274 8.62972 1.31274H0V19.0091H9.84418L8.01285 15.038C5.2241 15.038 2.95582 12.7762 2.95582 9.98102C2.95582 7.18584 5.21767 4.92399 8.01285 4.92399C10.808 4.92399 13.0699 7.18584 13.0699 9.98102C13.0699 11.8252 12.0803 13.438 10.6024 14.3184L12.7679 19.0091H16.5462L15.0618 15.7899C16.4498 14.2541 17.298 12.2172 17.298 9.98102L17.2916 9.97459Z" fill="#1C58CF"/>
<path d="M8.04501 12.5768C9.46454 12.5768 10.6153 11.4261 10.6153 10.0066C10.6153 8.58703 9.46454 7.43628 8.04501 7.43628C6.62549 7.43628 5.47473 8.58703 5.47473 10.0066C5.47473 11.4261 6.62549 12.5768 8.04501 12.5768Z" fill="#1C58CF"/>
</svg>
