<svg width="100" height="20" viewBox="0 0 100 20" fill="none" xmlns="http://www.w3.org/2000/svg">
<path d="M11.0362 18.8483L7.72693 14.1061C7.52131 14.1318 7.30926 14.1318 7.10364 14.1318H3.44742V18.8483H0.440186V2.65552H7.10364C11.3575 2.65552 13.9984 4.82741 13.9984 8.41295C13.9984 10.8676 12.7518 12.6668 10.5542 13.5214L14.2747 18.8419H11.0362V18.8483ZM6.96228 5.2001H3.44742V11.6515H6.96228C9.59681 11.6515 10.9655 10.4499 10.9655 8.41295C10.9655 6.376 9.60324 5.2001 6.96228 5.2001Z" fill="#231F20"/>
<path d="M28.6426 13.5987H18.9526C19.2996 15.4043 20.8032 16.561 22.9558 16.561C24.3438 16.561 25.4297 16.124 26.31 15.218L27.8586 16.9979C26.747 18.3152 25.012 19.0091 22.8851 19.0091C18.747 19.0091 16.061 16.3489 16.061 12.6734C16.061 8.9979 18.7663 6.35693 22.4482 6.35693C26.1301 6.35693 28.694 8.87581 28.694 12.7377C28.694 12.969 28.6683 13.316 28.649 13.5923L28.6426 13.5987ZM18.9269 11.6774H25.9373C25.706 9.8975 24.3438 8.67019 22.4418 8.67019C20.5398 8.67019 19.2032 9.87179 18.9269 11.6774Z" fill="#231F20"/>
<path d="M31.0715 2.72615C31.0715 1.75587 31.8554 0.991211 32.9221 0.991211C33.9887 0.991211 34.7727 1.71089 34.7727 2.65547C34.7727 3.67073 34.008 4.46109 32.9221 4.46109C31.8361 4.46109 31.0715 3.69643 31.0715 2.72615ZM31.4634 6.49804H34.355V18.8482H31.4634V6.49804Z" fill="#231F20"/>
<path d="M58.8049 11.7671V18.8418H55.9133V12.1333C55.9133 9.93573 54.898 8.86906 53.1374 8.86906C51.2418 8.86906 49.9245 10.1156 49.9245 12.5703V18.8353H47.033V12.1269C47.033 9.9293 46.0177 8.86264 44.2571 8.86264C42.3358 8.86264 41.0442 10.1092 41.0442 12.5638V18.8289H38.1526V6.49798H40.9029V8.07227C41.8282 6.96063 43.2611 6.36304 44.951 6.36304C46.7567 6.36304 48.2603 7.03131 49.1149 8.41926C50.1109 7.14697 51.7751 6.36304 53.7414 6.36304C56.7229 6.36304 58.8049 8.053 58.8049 11.7735V11.7671Z" fill="#231F20"/>
<path d="M75.6209 12.6733C75.6209 16.5158 72.9606 19.009 69.3558 19.009C67.6659 19.009 66.2329 18.4307 65.2627 17.2484V18.8419H62.5125V1.6853H65.404V8.00177C66.4 6.89012 67.788 6.35679 69.3623 6.35679C72.9735 6.35679 75.6273 8.83068 75.6273 12.6733H75.6209ZM72.6843 12.6733C72.6843 10.315 71.11 8.81141 69.0281 8.81141C66.9462 8.81141 65.3526 10.315 65.3526 12.6733C65.3526 15.0315 66.9462 16.5351 69.0281 16.5351C71.11 16.5351 72.6843 15.0315 72.6843 12.6733Z" fill="#231F20"/>
<path d="M85.5229 6.35693V9.10713C85.2659 9.06215 85.0603 9.03645 84.8547 9.03645C82.6571 9.03645 81.2691 10.3344 81.2691 12.8533V18.8421H78.3776V6.4983H81.1278V8.30392C81.9631 7.00593 83.4667 6.36336 85.5229 6.36336V6.35693Z" fill="#231F20"/>
<path d="M86.8402 12.6734C86.8402 8.97219 89.6161 6.35693 93.4073 6.35693C97.1984 6.35693 100 8.97219 100 12.6734C100 16.3746 97.2499 19.0091 93.4073 19.0091C89.5647 19.0091 86.8402 16.3746 86.8402 12.6734ZM97.0892 12.6734C97.0892 10.3152 95.5149 8.81155 93.4137 8.81155C91.3125 8.81155 89.7575 10.3152 89.7575 12.6734C89.7575 15.0316 91.3318 16.5352 93.4137 16.5352C95.4956 16.5352 97.0892 15.0316 97.0892 12.6734Z" fill="#231F20"/>
</svg>
