<?xml version="1.0" encoding="utf-8"?>
<!-- Generator: Adobe Illustrator 23.1.0, SVG Export Plug-In . SVG Version: 6.00 Build 0)  -->
<svg version="1.1" id="Слой_1" xmlns="http://www.w3.org/2000/svg" xmlns:xlink="http://www.w3.org/1999/xlink" x="0px" y="0px"
	 viewBox="0 0 1260 900" style="enable-background:new 0 0 1260 900;" xml:space="preserve">
<style type="text/css">
	.st0{fill:#44CCA8;}
	.st1{fill:#FFFFFF;}
	.st2{fill:#159096;}
	.st3{fill:#239E9E;}
</style>
<g>
	<path class="st0" d="M46,740V47h229.64v693H46z M190,522.17V389.35V186.69V47h193.22c53.67,0,100.81,10.12,141.45,30.35
		s72.46,48.29,95.47,84.16s34.5,77.09,34.5,123.65c0,47.32-11.5,88.74-34.5,124.23s-55.21,63.17-96.62,83.01
		c-41.41,19.84-90.09,29.76-146.05,29.76H190z M490.64,784.44c-191-39.12-248-264.44-248-264.44l218-63c0,0,42,203,125,265
		c88.56,66.15,133.22,61.61,120.9,63.59C658.54,793.32,590.14,804.82,490.64,784.44z"/>
</g>
<path class="st1" d="M446.64,290.5c0,43.7-40.52,79.13-90.5,79.13c-21.07,0-90.5,0-90.5,0s0-53.85,0-79.13c0-22.48,0-79.13,0-79.13
	s66.22,0,90.5,0C406.12,211.37,446.64,246.8,446.64,290.5z"/>
<g>
	<g>
		<g>
			<path class="st2" d="M810.55,799.99c-49.36,0-95.28-8.76-137.76-26.24c-42.49-17.48-79.51-41.85-111.05-73.1
				c-31.55-31.23-56.23-67.62-74.03-109.17C469.91,549.94,461,505.12,461,457.01c0-48.73,8.74-93.71,26.24-134.94
				c17.48-41.23,42.01-77.31,73.56-108.24c31.54-30.93,68.41-54.97,110.58-72.16c42.17-17.18,87.93-25.77,137.29-25.77
				c49.97,0,96.05,8.59,138.23,25.77c42.17,17.19,79.02,41.23,110.58,72.16c31.54,30.93,56.07,67.17,73.56,108.71
				c17.48,41.56,26.24,86.68,26.24,135.41c0,48.11-8.76,92.94-26.24,134.48c-17.5,41.56-42.02,77.78-73.56,108.71
				c-31.55,30.92-68.26,55.14-110.11,72.63C905.5,791.24,859.89,799.99,810.55,799.99z M1033.39,854L830.74,630.26l217.88-113.63
				l166.34,168.68L1033.39,854z"/>
		</g>
		<circle class="st1" cx="809.07" cy="461" r="150"/>
	</g>
	<circle class="st3" cx="809.87" cy="463.17" r="77.77"/>
</g>
</svg>
