<svg width="512" height="512" viewBox="0 0 32 33" fill="none" xmlns="http://www.w3.org/2000/svg">
<path d="M31.9881 16.0238C31.9881 7.1679 24.8083 0 15.9643 0H0V32.737H18.211L14.8232 25.3908C9.66419 25.3908 5.46805 21.2065 5.46805 16.0357C5.46805 10.8648 9.6523 6.68053 14.8232 6.68053C19.9941 6.68053 24.1783 10.8648 24.1783 16.0357C24.1783 19.4473 22.3477 22.4309 19.6137 24.0594L23.6196 32.737H30.6092L27.8633 26.7816C30.4309 23.9406 32 20.1724 32 16.0357L31.9881 16.0238Z" fill="white"/>
<path d="M14.8826 20.8378C17.5086 20.8378 19.6374 18.709 19.6374 16.083C19.6374 13.4569 17.5086 11.3281 14.8826 11.3281C12.2566 11.3281 10.1277 13.4569 10.1277 16.083C10.1277 18.709 12.2566 20.8378 14.8826 20.8378Z" fill="white"/>
</svg>
